<svg xmlns="http://www.w3.org/2000/svg" viewBox="0 0 1246 1246">
  <defs>
    <mask id="discMask">
      <circle cx="623" cy="623" r="530" fill="#fff"/>
      <circle cx="623" cy="623" r="355" fill="none" stroke="#000" stroke-width="16" stroke-dasharray="500 1727" transform="matrix(-0.70710678,0.70710678,-0.70710678,-0.70710678,1504.05504936,623)"/>
      <circle cx="623" cy="623" r="362" fill="none" stroke="#000" stroke-width="12" stroke-dasharray="110 2164" transform="matrix(0.90630779,-0.42261826,0.42261826,0.90630779,-204.92092839,321.66142574)"/>
      <circle cx="623" cy="623" r="292" fill="none" stroke="#000" stroke-width="14" stroke-dasharray="300 1535" transform="matrix(0.88294759,-0.46947156,0.46947156,0.88294759,-219.55713397,365.40443326)"/>
    </mask>
    <g id="quarter-note" transform="matrix(0.068,0,0,0.068,0,0)">
      <path d="M977.92 697.344q-7.168 38.912-27.648 69.632-17.408 26.624-52.224 48.128t-94.208 21.504q-38.912 0-73.728-5.12t-61.44-17.408-43.52-32.256-19.968-48.64 8.192-59.904 33.792-56.832 54.784-41.984 70.144-16.384q64.512 0 112.64 22.528l0-428.032-464.896 67.584 4.096 570.368 0 25.6q0 30.72-12.288 59.904t-34.304 51.712-53.248 35.84-69.12 13.312q-40.96 0-75.776-7.68t-61.44-22.528-43.008-36.864-19.456-50.688 8.192-55.808 34.304-48.64 55.296-36.352 70.144-18.944q28.672-4.096 56.32-0.512t52.224 11.776l0-571.392 646.144-93.184 0 651.264z" fill="#414042"/>
    </g>
    <g id="eighth-note-a" transform="matrix(0.068,0,0,0.068,0,0)">
      <path d="M644.870244 591.022829c-37.66322-82.119805-105.69678-70.631024-105.696781-70.631024L523.588683 437.572683s53.547707-43.157854 73.128585-119.58322c19.68078-76.525268 10.889366-113.589073 6.493659-152.950634s-34.965854-87.414634-48.053073-100.501853c-43.657366 34.965854-67.733854 74.227512-78.62322 102.699707-39.361561 85.21678 8.691512 235.969561 8.691512 235.969561s-74.327415 63.338146-80.821073 74.227512c-6.593561 10.889366-59.042341 61.140293-21.878634 190.014439S559.453659 767.950049 559.453659 767.950049s4.395707 45.85522 8.691512 63.338146c13.08722 72.029659-8.691512 93.908293-30.570147 102.699707-34.965854 8.691512-37.163707-2.197854-45.855219-4.395707 32.768-26.174439 32.768-48.053073 34.965854-69.931707 2.097951-21.878634-37.163707-54.646634-63.338147-50.250927-26.174439 4.395707-50.250927 43.657366-48.053073 61.140293 6.593561 45.85522 21.878634 63.338146 48.053073 78.623219 26.274341 15.285073 50.250927 10.889366 67.733854 4.395707 32.768-13.08722 61.44-43.757268 58.942439-83.018926-2.697366-43.157854-8.192-88.713366-10.889366-106.995513 18.581854-5.494634 49.651512-36.364488 60.041366-53.547707 22.078439-35.864976 17.482927-93.109073 5.694439-118.983805zM531.780683 140.06322c30.570146-30.570146 36.264585-13.386927 47.253854-0.299708s10.889366 52.44878 6.593561 87.414634c-8.691512 102.699707-76.425366 150.75278-76.425366 150.752781-17.582829-17.482927-14.286049-41.159805-17.58283-74.327415 2.197854-93.908293 9.490732-132.870244 40.160781-163.540292z m-77.024781 579.833756c-21.878634-15.285073-74.327415-74.227512-34.965853-161.642147 39.361561-87.314732 81.620293-97.704585 81.620292-97.704585 7.39278 34.366439 11.48878 65.536 11.488781 65.536s-11.688585 1.098927-36.364488 23.477073c-30.070634 27.273366-41.459512 107.095415 6.593561 150.752781s26.174439-6.593561 17.482927-13.08722c-8.791415-6.593561-24.076488-21.878634-19.680781-45.855219 3.29678-56.245073 37.163707-61.140293 43.657366-65.536 6.593561-4.395707 28.372293 148.554927 30.570147 166.037853-52.348878 12.987317-78.523317-6.693463-100.401952-21.978536z m120.182635 17.582829s-24.076488-157.346341-26.174439-170.333659c21.878634-8.791415 48.252878 11.089171 53.547707 18.881561 11.089171 16.384 22.977561 48.852293 22.977561 61.939513-1.798244 83.718244-50.350829 89.512585-50.350829 89.512585z" fill="#414042"/>
    </g>
    <g id="eighth-note-b" transform="matrix(0.068,0,0,0.068,0,0)">
      <path d="M774.971358 398.698511L765.58597 362.781352c-46.746453-139.968626-186.263858-184.639464-199.800476-196.732176-19.673218-17.687847-21.387856-35.556182-21.387856-35.556182v-16.42443c0-1.624394-0.721953-3.248788-2.075615-4.512205-1.353662-1.173174-3.158544-1.895126-4.873182-1.895127h-14.439059c-1.804882 0-3.519521 0.631709-4.873182 1.895127-1.353662 1.173174-2.075615 2.887812-2.075615 4.512205v642.899093c-32.307394-21.4781-87.175817-28.697629-144.841808-15.702477-82.392879 18.500044-138.885697 71.383097-126.161276 117.949062 12.724421 46.565965 89.702653 69.217238 172.185776 50.62695 79.866044-18.048823 135.45642-68.314797 127.153961-113.888077V420.176611s12.363444 2.165859 51.529391 22.200052c122.461267 62.809906 172.27602 128.236891 139.788138 335.617873-0.812197 5.685379 4.151229 5.956112 5.956112 0.180488 25.268353-79.414823 29.690315-144.932053 21.4781-198.80779 19.763462-71.563585 21.387856-131.214947 11.821979-180.668723z m-18.139068 149.354014c-39.075703-148.451573-177.510179-195.829735-191.227284-208.283423-19.402485-17.778091-21.207368-35.556182-21.207368-35.556182v-57.756235s12.092712 2.165859 51.980612 22.200052c112.985635 56.673306 173.268705 114.610029 160.45404 279.395788z" fill="#414042"/>
    </g>
  </defs>
  <g fill="#414042">
    <rect x="1185" y="750" width="7" height="2.9" rx="1.45" opacity="0.66" transform="matrix(0.97437006,0.22495105,-0.22495105,0.97437006,199.08476399,-247.34454799)"/>
    <rect x="48" y="627" width="19" height="2.5" rx="1.25" opacity="0.57" transform="matrix(-0.2923717,0.95630476,-0.95630476,-0.2923717,661.63692382,764.41443057)"/>
  </g>
  <circle cx="623" cy="623" r="530" fill="#231E1F" mask="url(#discMask)"/>
  <g fill="none" stroke="#413F42">
    <circle cx="623" cy="623" r="420" stroke-width="5" opacity="0.5" stroke-dasharray="400 2239" transform="matrix(-0.93969262,-0.34202014,0.34202014,-0.93969262,995.34995346,1421.50705204)"/>
    <circle cx="623" cy="623" r="475" stroke-width="4" opacity="0.45" stroke-dasharray="550 2434" transform="matrix(0.93969262,0.34202014,-0.34202014,0.93969262,250.65004654,-175.50705204)"/>
    <circle cx="623" cy="623" r="510" stroke-width="6" opacity="0.4" stroke-dasharray="260 2944" transform="matrix(0.64278761,-0.76604444,0.76604444,0.64278761,-254.7023689,699.78900723)"/>
  </g>
  <circle cx="623" cy="623" r="282" fill="none" stroke="#fff" stroke-width="3" stroke-dasharray="7 13" opacity="0.28"/>
  <circle cx="623" cy="623" r="189" fill="#AB130E"/>
  <circle cx="623" cy="623" r="179" fill="#B2241F"/>
  <circle cx="623" cy="623" r="172" fill="none" stroke="#fff" stroke-width="2.5" stroke-dasharray="6 9" opacity="0.8"/>
  <text x="623" y="518" text-anchor="middle" font-family="Georgia, serif" font-size="72" font-style="italic" fill="#fff">Best</text>
  <text x="623" y="736" text-anchor="middle" font-family="Georgia, serif" font-size="52" fill="#fff" letter-spacing="1">foobar 2000</text>
  <circle cx="623" cy="623" r="63" fill="#231E1F"/>
  <g transform="matrix(1,0,0,1,623,623)">
    <use href="#eighth-note-a" opacity="0.92" transform="matrix(-0.01745241,0.9998477,-0.9998477,-0.01745241,620.37779291,-16.59314823)"/>
    <use href="#quarter-note" opacity="0.88" transform="matrix(-0.43209008,0.95697344,-0.95697344,-0.43209008,621.98833285,139.80779363)"/>
    <use href="#eighth-note-b" opacity="0.90" transform="matrix(-0.70153257,0.64058727,-0.64058727,-0.70153257,568.13626737,293.74655371)"/>
    <use href="#eighth-note-b" opacity="0.91" transform="matrix(-0.88453358,-0.42190087,0.42190087,-0.88453358,239.92238302,553.65074426)"/>
    <use href="#eighth-note-a" opacity="0.93" transform="matrix(-0.94494891,0.3272179,-0.3272179,-0.94494891,475.00856178,393.37533078)"/>
    <use href="#quarter-note" opacity="0.87" transform="matrix(-1.01840958,-0.05693794,0.05693794,-1.01840958,359.0856671,490.43516571)"/>
    <use href="#eighth-note-a" opacity="0.89" transform="matrix(-0.71877446,-0.76541706,0.76541706,-0.71877446,116.0321075,615.59638674)"/>
    <use href="#quarter-note" opacity="0.92" transform="matrix(-0.36966775,-0.87512614,0.87512614,-0.36966775,-39.51020672,623.46263183)"/>
    <use href="#eighth-note-b" opacity="0.88" transform="matrix(-0.06279052,-0.99802673,0.99802673,-0.06279052,-175.32651033,584.79181485)"/>
    <use href="#eighth-note-a" opacity="0.90" transform="matrix(0.27601245,-0.98194558,0.98194558,0.27601245,-297.46457947,536.83578161)"/>
    <use href="#quarter-note" opacity="0.93" transform="matrix(0.54800905,-0.81245682,0.81245682,0.54800905,-405.78902424,435.15545246)"/>
    <use href="#eighth-note-b" opacity="0.87" transform="matrix(0.83078471,-0.64210339,0.64210339,0.83078471,-495.01270267,330.13243433)"/>
    <use href="#eighth-note-a" opacity="0.91" transform="matrix(0.89606153,-0.31555308,0.31555308,0.89606153,-557.68278375,207.40036816)"/>
    <use href="#quarter-note" opacity="0.89" transform="matrix(0.99981571,-0.01919744,0.01919744,0.99981571,-590.43750304,73.54287866)"/>
    <use href="#eighth-note-b" opacity="0.92" transform="matrix(0.97438393,0.30162221,-0.30162221,0.97438393,-591.51982356,-64.25961665)"/>
    <use href="#eighth-note-a" opacity="0.88" transform="matrix(0.79783321,0.5690889,-0.5690889,0.79783321,-560.8716872,-198.61508124)"/>
    <use href="#quarter-note" opacity="0.90" transform="matrix(0.60525393,0.85800214,-0.85800214,0.60525393,-500.13712908,-322.31638512)"/>
    <use href="#eighth-note-b" opacity="0.93" transform="matrix(0.26026126,0.91365424,-0.91365424,0.26026126,-412.57408782,-428.72791145)"/>
    <use href="#eighth-note-a" opacity="0.87" transform="matrix(-0.07671903,0.99705275,-0.99705275,-0.07671903,-302.87964237,-512.14150607)"/>
    <use href="#quarter-note" opacity="0.91" transform="matrix(-0.42622442,0.92667834,-0.92667834,-0.42622442,-176.93805008,-568.0826757)"/>
    <use href="#eighth-note-b" opacity="0.89" transform="matrix(-0.69296465,0.69296465,-0.69296465,-0.69296465,-41.50510188,-593.5506099)"/>
    <use href="#eighth-note-a" opacity="0.92" transform="matrix(-0.95393359,0.43876043,-0.43876043,-0.95393359,96.15427356,-587.17915126)"/>
    <use href="#quarter-note" opacity="0.88" transform="matrix(-0.94720011,0.07288308,-0.07288308,-0.94720011,228.65571698,-549.31007918)"/>
    <use href="#eighth-note-b" opacity="0.90" transform="matrix(-0.96174131,-0.27395922,0.27395922,-0.96174131,348.89155226,-481.97477607)"/>
    <use href="#eighth-note-a" opacity="0.93" transform="matrix(-0.8334878,-0.58796096,0.58796096,-0.8334878,439.6752652,-387.8092076)"/>
    <use href="#quarter-note" opacity="0.87" transform="matrix(-0.55507811,-0.80764366,0.80764366,-0.55507811,527.77144574,-274.74042487)"/>
    <use href="#eighth-note-b" opacity="0.91" transform="matrix(-0.25757276,-1.01791762,1.01791762,-0.25757276,557.29867964,-71.77684283)"/>
  </g>
  <g transform="matrix(1,0,0,1,623,623)">
    <use href="#quarter-note" opacity="0.78" transform="matrix(-0.24432043,1.09302677,-1.09302677,-0.24432043,637.27805084,72.63849578)"/>
    <use href="#eighth-note-b" opacity="0.72" transform="matrix(-0.51600767,0.71283664,-0.71283664,-0.51600767,587.06179811,226.90262338)"/>
    <use href="#eighth-note-a" opacity="0.76" transform="matrix(-0.92767669,0.55300629,-0.55300629,-0.92767669,519.49035633,352.3684789)"/>
    <use href="#quarter-note" opacity="0.70" transform="matrix(-0.90989459,0.13598466,-0.13598466,-0.90989459,423.33806405,446.10523817)"/>
    <use href="#eighth-note-b" opacity="0.74" transform="matrix(-1.14593845,-0.28146948,0.28146948,-1.14593845,306.6906412,538.86231619)"/>
    <use href="#eighth-note-a" opacity="0.78" transform="matrix(-0.6867914,-0.5008169,0.5008169,-0.6867914,178.78184906,588.4403542)"/>
    <use href="#quarter-note" opacity="0.72" transform="matrix(-0.56570932,-0.88457502,0.88457502,-0.56570932,41.9494825,627.11975097)"/>
    <use href="#eighth-note-b" opacity="0.76" transform="matrix(-0.19172735,-0.87934102,0.87934102,-0.19172735,-103.62096843,606.20763349)"/>
    <use href="#eighth-note-a" opacity="0.70" transform="matrix(0.12186934,-0.99254615,0.99254615,0.12186934,-240.29964402,566.11048487)"/>
    <use href="#quarter-note" opacity="0.74" transform="matrix(0.50953187,-1.03095939,1.03095939,0.50953187,-364.08810496,495.64589358)"/>
    <use href="#eighth-note-b" opacity="0.78" transform="matrix(0.61789469,-0.62658292,0.62658292,0.61789469,-468.34605914,398.59373915)"/>
    <use href="#eighth-note-a" opacity="0.72" transform="matrix(0.97923409,-0.5010994,0.5010994,0.97923409,-547.48087484,280.16011795)"/>
    <use href="#quarter-note" opacity="0.76" transform="matrix(0.90657527,-0.15659274,0.15659274,0.90657527,-597.24758214,146.69807641)"/>
    <use href="#eighth-note-b" opacity="0.70" transform="matrix(1.18681904,0.17737129,-0.17737129,1.18681904,-614.97658268,5.36681933)"/>
    <use href="#eighth-note-a" opacity="0.74" transform="matrix(0.75869795,0.38324591,-0.38324591,0.75869795,-599.7168529,-136.25232604)"/>
    <use href="#quarter-note" opacity="0.78" transform="matrix(0.74116515,0.74375683,-0.74375683,0.74116515,-552.28695909,-270.56258946)"/>
    <use href="#eighth-note-b" opacity="0.72" transform="matrix(0.38887717,0.81164927,-0.81164927,0.38887717,-475.2311477,-390.35926562)"/>
    <use href="#eighth-note-a" opacity="0.76" transform="matrix(0.10973431,0.99396096,-0.99396096,0.10973431,-372.68286616,-489.21619073)"/>
    <use href="#quarter-note" opacity="0.70" transform="matrix(-0.27821018,1.11584009,-1.11584009,-0.27821018,-250.80969198,-561.83045645)"/>
    <use href="#eighth-note-b" opacity="0.74" transform="matrix(-0.49590292,0.7269665,-0.7269665,-0.49590292,-114.18496846,-604.30686987)"/>
    <use href="#eighth-note-a" opacity="0.78" transform="matrix(-0.88538318,0.65276078,-0.65276078,-0.88538318,27.8982377,-614.36690042)"/>
    <use href="#quarter-note" opacity="0.72" transform="matrix(-0.88391682,0.25512948,-0.25512948,-0.88391682,168.4849195,-591.47090537)"/>
    <use href="#eighth-note-b" opacity="0.76" transform="matrix(-1.19677737,-0.08788584,0.08788584,-1.19677737,299.05759392,-499.75657397)"/>
    <use href="#eighth-note-a" opacity="0.70" transform="matrix(-0.77346708,-0.35248926,0.35248926,-0.77346708,388.15808123,-438.78456214)"/>
    <use href="#quarter-note" opacity="0.74" transform="matrix(-0.75784824,-0.72675033,0.72675033,-0.75784824,508.65455318,-345.68127738)"/>
    <use href="#eighth-note-b" opacity="0.78" transform="matrix(-0.39312161,-0.809602,0.809602,-0.39312161,556.96655171,-211.58536603)"/>
    <use href="#eighth-note-a" opacity="0.72" transform="matrix(-0.10734119,-1.09475014,1.09475014,-0.10734119,554.93776434,-34.48643533)"/>
  </g>
  <circle cx="623" cy="623" r="537" fill="none" stroke="#414042" stroke-width="29" opacity="0.95"/>
  <circle cx="623" cy="623" r="550" fill="none" stroke="#414042" stroke-width="4" stroke-dasharray="10 14" opacity="0.8"/>
</svg>